<svg id="OutlineExpand" enable-background="new 0 0 64 64" height="512" viewBox="0 0 64 64" width="512" xmlns="http://www.w3.org/2000/svg"><path d="m60.555 32.798.656-1.889c-4.508-1.567-9.844-.3-13.271 2.994-2.38-.907-5.106-1.2-7.917-.779-3.673.549-6.846 2.233-9.035 4.658-1.453-.981-2.361-1.495-3.805-1.765-.624-.117-1.212-.169-1.754-.179.133-.875.224-1.766.229-2.683.01-1.513-.151-3.016-.307-4.469-.094-.882-.177-1.782-.233-2.677 2 1.254 4.354 1.991 6.882 1.991 7.168 0 13-5.832 13-13s-5.832-13-13-13c-5.063 0-9.448 2.916-11.594 7.151l-.016-.02-3.955 3.043-.37.253c-.535.25-1.143.568-1.666 1.028-1.037.912-1.479 2.253-1.868 3.436-.109.333-.217.66-.335.963l-5.99 15.351c-.511 1.31-.974 3.972-1.421 6.546-.253 1.456-.491 2.831-.683 3.583-.076.297-.146.597-.218.896-.28 1.186-.545 2.305-1.097 3.258-.274.474-.116 1.081.354 1.36l3.523 2.094c9.443 5.609 21.251 9.479 31.585 10.352.801.067 1.811.108 2.962.108 5.75 0 15.024-1.005 19.423-4.632l-1.271-1.543c-4.543 3.745-15.885 4.502-20.945 4.074-10.047-.849-21.535-4.616-30.731-10.078l-2.727-1.62c.406-.951.642-1.944.87-2.913.068-.289.137-.577.209-.863.211-.827.445-2.174.716-3.734.391-2.245.876-5.039 1.313-6.162l5.99-15.351c.131-.335.25-.696.372-1.065.324-.987.66-2.007 1.288-2.559.354-.312.815-.544 1.26-.75.052-.023.101-.051.146-.083l2.119-1.611c-.155.808-.243 1.637-.243 2.488 0 3.706 1.567 7.046 4.063 9.416-.001.221-.005.441-.001.663.03 1.291.168 2.577.302 3.821.156 1.462.304 2.843.295 4.243-.027 4.189-1.65 8.099-4.341 10.458l1.318 1.504c2.093-1.835 3.586-4.373 4.377-7.273.437-.02 1.051.01 1.803.151 1.049.196 1.689.54 2.949 1.387-.544.839-.989 1.738-1.31 2.693l1.896.637c1.331-3.966 5.15-6.877 9.968-7.598 4.829-.726 9.331.932 11.751 4.316l1.627-1.163c-1.004-1.404-2.306-2.55-3.807-3.42 2.898-2.412 7.091-3.28 10.665-2.037zm-39.555-17.798c0-6.065 4.935-11 11-11s11 4.935 11 11-4.935 11-11 11-11-4.935-11-11z"/><path d="m32 24c4.963 0 9-4.038 9-9s-4.037-9-9-9-9 4.038-9 9 4.037 9 9 9zm0-16c3.859 0 7 3.14 7 7s-3.141 7-7 7-7-3.14-7-7 3.141-7 7-7z"/><path d="m29.172 17.828c.141.141.336.58.493.933.421.945.996 2.239 2.335 2.239s1.914-1.294 2.335-2.239c.157-.353.353-.792.493-.933.142-.141.58-.336.933-.493.945-.42 2.239-.997 2.239-2.335s-1.294-1.915-2.239-2.335c-.353-.157-.791-.352-.933-.493-.141-.141-.336-.58-.493-.933-.421-.945-.996-2.239-2.335-2.239s-1.914 1.294-2.335 2.239c-.157.353-.353.792-.493.933-.142.141-.58.336-.933.493-.945.42-2.239.997-2.239 2.335s1.294 1.915 2.239 2.335c.353.157.791.352.933.493zm-.12-3.335c.556-.248 1.131-.503 1.534-.907s.659-.978.906-1.534c.126-.282.342-.767.508-.983.166.216.382.701.508.983.247.556.503 1.13.906 1.534.403.403.979.659 1.534.907.281.125.767.341.982.507-.216.167-.701.382-.982.507-.556.248-1.131.503-1.534.907s-.659.978-.906 1.534c-.126.282-.342.767-.508.983-.166-.216-.382-.701-.508-.983-.247-.556-.503-1.13-.906-1.534-.403-.403-.979-.659-1.534-.907-.281-.125-.767-.341-.982-.507.215-.167.701-.382.982-.507z"/><path d="m62 24v-21c0-.552-.447-1-1-1h-10c-.441 0-.831.29-.958.713l-3 10c-.091.303-.033.63.155.884.19.254.487.403.803.403h4v8c0 1.654 1.346 3 3 3h6c.553 0 1-.448 1-1zm-2-1h-5c-.552 0-1-.449-1-1v-3c2.206 0 4-1.794 4-4h-2c0 1.103-.897 2-2 2v-4c0-.552-.447-1-1-1h-3.656l2.4-8h8.256z"/></svg>